# xmcd
#
# Track frame offsets:
#	150
#	18284
#	43146
#	74730
#	105158
#	131058
#	191878
#
# Disc length: 2836 seconds
#
# Revision: 1
# Processed by: cddbd v1.5.2PL0 Copyright (c) Steve Scherf et al.
# Submitted via: audiograbber 1.83.01
#
DISCID=620b1207
DTITLE=Grateful Dead - 79-11-02 Nassau Veterans Memorial Coliseum, Uniondale NY
DYEAR=1900
DGENRE=
TTITLE0=Tuning
TTITLE1=I Need A Miracle
TTITLE2=Bertha
TTITLE3=Lost Sailor
TTITLE4=Saint Of Circumstance
TTITLE5=Jam
TTITLE6=Drums
EXTD=
EXTT0=
EXTT1=
EXTT2=
EXTT3=
EXTT4=
EXTT5=
EXTT6=
PLAYORDER=
